# xmcd
#
# Track frame offsets: 
#        150
#        19360
#        37817
#        56432
#        74532
#        91902
#        110325
#        128230
#        147455
#        166620
#        184997
#        202587
#        220927
#        238337
#        257140
#        274920
#        293115
#        310645
#
# Disc length: 4437 seconds
#
# Revision: 6
# Processed by: cddbd v1.5.2PL0 Copyright (c) Steve Scherf et al.
# Submitted via: ExactAudioCopy v0.99pb5
#
DISCID=08115312
DTITLE=Various Artist - Super Eurobeat Vol. 105
DYEAR=2000
DGENRE=Eurobeat
TTITLE0=The Spiders From Mars - Fly To Me To The Moon and Back
TTITLE1=King and Queen - Night Flight To Venus
TTITLE2=Silver - One Night
TTITLE3=Lolita - Dreamin' Of You
TTITLE4=Sara - If You Stay
TTITLE5=Macho Gang - 1 2 3 4 Gimme Some More
TTITLE6=Lou Grant - Don't Stop The Rock
TTITLE7=J. Storm - Music
TTITLE8=Norma Sheffield - I Will Remember
TTITLE9=Sophie - All Of My Life
TTITLE10=Vicky Vale - Photograph
TTITLE11=Kevin Johnson - I Love You
TTITLE12=Vanessa - Hai Go!!!
TTITLE13=Mega NGR Man - I Can Be Your Dee Jay
TTITLE14=Denise - Telephone! Telephone!
TTITLE15=Robert Patton - Millennium
TTITLE16=Dr. Love feat. D. Essex - Man Power
TTITLE17=Nanase Aikawa - Break Out! (Eurobeat Mix)
EXTD=YEAR: 2000
EXTT0=
EXTT1=
EXTT2=
EXTT3=
EXTT4=
EXTT5=
EXTT6=
EXTT7=
EXTT8=
EXTT9=
EXTT10=
EXTT11=
EXTT12=
EXTT13=
EXTT14=
EXTT15=
EXTT16=
EXTT17=
PLAYORDER=
